{"extensionsUsed" : ["KHR_materials_transmission"], "accessors" : [{"bufferView" : 0, "byteOffset" : 0, "componentType" : 5123, "count" : 1008, "type" : "SCALAR", "max" : [861], "min" : [0]}, {"bufferView" : 1, "byteOffset" : 0, "componentType" : 5126, "count" : 862, "type" : "VEC3", "max" : [1.0782170295715332, 0.9022650718688965, 3.18052077293396], "min" : [-1.0782170295715332, -1.0098021030426025, -4.067211151123047], "name" : "POSITION"}, {"bufferView" : 1, "byteOffset" : 12, "componentType" : 5126, "count" : 862, "type" : "VEC3", "max" : [1.0000044107437134, 1.0000044107437134, 1.0000044107437134], "min" : [-1.0000044107437134, -1.0000044107437134, -1.0000044107437134], "name" : "NORMAL"}, {"bufferView" : 1, "byteOffset" : 24, "componentType" : 5126, "count" : 862, "type" : "VEC2", "max" : [0.7500000596046448, 2], "min" : [0, 1.125], "name" : "TEXCOORD_0"}, {"bufferView" : 0, "byteOffset" : 2016, "componentType" : 5123, "count" : 78, "type" : "SCALAR", "max" : [67], "min" : [0]}, {"bufferView" : 2, "byteOffset" : 0, "componentType" : 5126, "count" : 68, "type" : "VEC3", "max" : [0.9415597915649414, 0.8812655806541443, 2.042774200439453], "min" : [-0.9415597915649414, 0.15152165293693542, -3.9165427684783936], "name" : "POSITION"}, {"bufferView" : 2, "byteOffset" : 12, "componentType" : 5126, "count" : 68, "type" : "VEC3", "max" : [0.954606831073761, 0.9902889728546143, 0.3367522060871124], "min" : [-0.9546067118644714, 0.2976965606212616, -0.13951687514781952], "name" : "NORMAL"}, {"bufferView" : 2, "byteOffset" : 24, "componentType" : 5126, "count" : 68, "type" : "VEC2", "max" : [0.75, 1.4979785680770874], "min" : [0.6249999403953552, 1.3959391117095947], "name" : "TEXCOORD_0"}, {"bufferView" : 0, "byteOffset" : 2172, "componentType" : 5123, "count" : 24, "type" : "SCALAR", "max" : [19], "min" : [0]}, {"bufferView" : 3, "byteOffset" : 0, "componentType" : 5126, "count" : 20, "type" : "VEC3", "max" : [1, -0.0041496530175209045, 3.136773109436035], "min" : [-1, -0.18765053153038025, 2.729440689086914], "name" : "POSITION"}, {"bufferView" : 3, "byteOffset" : 12, "componentType" : 5126, "count" : 20, "type" : "VEC3", "max" : [0.6391127109527588, 0.614277720451355, 0.7890954613685608], "min" : [-0.6391127109527588, 0.2888682782649994, 0.7128104567527771], "name" : "NORMAL"}, {"bufferView" : 3, "byteOffset" : 24, "componentType" : 5126, "count" : 20, "type" : "VEC2", "max" : [0.7500000596046448, 1.3819122314453125], "min" : [0.619766354560852, 1.3125], "name" : "TEXCOORD_0"}, {"bufferView" : 0, "byteOffset" : 2220, "componentType" : 5123, "count" : 24, "type" : "SCALAR", "max" : [19], "min" : [0]}, {"bufferView" : 4, "byteOffset" : 0, "componentType" : 5126, "count" : 20, "type" : "VEC3", "max" : [1, 0.323652982711792, -3.9367430210113525], "min" : [-1, -0.5781568288803101, -4.048462390899658], "name" : "POSITION"}, {"bufferView" : 4, "byteOffset" : 12, "componentType" : 5126, "count" : 20, "type" : "VEC3", "max" : [4.236638915244839E-07, -0.12294387817382812, -0.9924178719520569], "min" : [-4.1975187059506425E-07, -0.12294484674930573, -0.9924179911613464], "name" : "NORMAL"}, {"bufferView" : 4, "byteOffset" : 24, "componentType" : 5126, "count" : 20, "type" : "VEC2", "max" : [0.625, 1.625], "min" : [0.574118435382843, 1.5], "name" : "TEXCOORD_0"}, {"bufferView" : 0, "byteOffset" : 2268, "componentType" : 5123, "count" : 726, "type" : "SCALAR", "max" : [608], "min" : [0]}, {"bufferView" : 5, "byteOffset" : 0, "componentType" : 5126, "count" : 609, "type" : "VEC3", "max" : [1.0782170295715332, 0.808589518070221, 3.18052077293396], "min" : [-1.0782170295715332, -1.0098021030426025, -4.067211151123047], "name" : "POSITION"}, {"bufferView" : 5, "byteOffset" : 12, "componentType" : 5126, "count" : 609, "type" : "VEC3", "max" : [1.0000044107437134, 1.0000044107437134, 1.0000044107437134], "min" : [-1.0000044107437134, -0.9999122619628906, -0.9999756813049316], "name" : "NORMAL"}, {"bufferView" : 5, "byteOffset" : 24, "componentType" : 5126, "count" : 609, "type" : "VEC2", "max" : [0.625, 1.625], "min" : [0.375, 1.125], "name" : "TEXCOORD_0"}, {"bufferView" : 0, "byteOffset" : 3720, "componentType" : 5123, "count" : 126, "type" : "SCALAR", "max" : [109], "min" : [0]}, {"bufferView" : 6, "byteOffset" : 0, "componentType" : 5126, "count" : 110, "type" : "VEC3", "max" : [1, 0.9022650718688965, 2.2406554222106934], "min" : [-1, 0.16271312534809113, -4.048462390899658], "name" : "POSITION"}, {"bufferView" : 6, "byteOffset" : 12, "componentType" : 5126, "count" : 110, "type" : "VEC3", "max" : [0.012640469707548618, 0.9901012182235718, 0.3192400634288788], "min" : [-0.012640469707548618, 0.9475941061973572, -0.14014828205108643], "name" : "NORMAL"}, {"bufferView" : 6, "byteOffset" : 24, "componentType" : 5126, "count" : 110, "type" : "VEC2", "max" : [0.75, 1.5], "min" : [0.625, 1.3921642303466797], "name" : "TEXCOORD_0"}, {"bufferView" : 0, "byteOffset" : 3972, "componentType" : 5123, "count" : 5988, "type" : "SCALAR", "max" : [4991], "min" : [0]}, {"bufferView" : 7, "byteOffset" : 0, "componentType" : 5126, "count" : 4992, "type" : "VEC3", "max" : [1, 0.5541013479232788, 1], "min" : [-1, -0.9846097230911255, -1], "name" : "POSITION"}, {"bufferView" : 7, "byteOffset" : 12, "componentType" : 5126, "count" : 4992, "type" : "VEC3", "max" : [0.9999846816062927, 1.0000044107437134, 0.9999846816062927], "min" : [-0.9999846816062927, -1.0000044107437134, -0.999984622001648], "name" : "NORMAL"}, {"bufferView" : 7, "byteOffset" : 24, "componentType" : 5126, "count" : 4992, "type" : "VEC2", "max" : [1, 1.9900000095367432], "min" : [5.7746656239032745E-06, 1], "name" : "TEXCOORD_0"}, {"bufferView" : 0, "byteOffset" : 15948, "componentType" : 5123, "count" : 2160, "type" : "SCALAR", "max" : [1801], "min" : [0]}, {"bufferView" : 8, "byteOffset" : 0, "componentType" : 5126, "count" : 1802, "type" : "VEC3", "max" : [0.7261181473731995, 0.013388752937316895, 0.6732775568962097], "min" : [-0.7471809387207031, -1.2783559560775757, -0.7630828619003296], "name" : "POSITION"}, {"bufferView" : 8, "byteOffset" : 12, "componentType" : 5126, "count" : 1802, "type" : "VEC3", "max" : [0.9779530167579651, 1.0000044107437134, 1.0000044107437134], "min" : [-0.9776337146759033, -1.0000044107437134, -0.9999290108680725], "name" : "NORMAL"}, {"bufferView" : 8, "byteOffset" : 24, "componentType" : 5126, "count" : 1802, "type" : "VEC2", "max" : [0, 2], "min" : [0, 2], "name" : "TEXCOORD_0"}, {"bufferView" : 0, "byteOffset" : 20268, "componentType" : 5123, "count" : 5988, "type" : "SCALAR", "max" : [4991], "min" : [0]}, {"bufferView" : 9, "byteOffset" : 0, "componentType" : 5126, "count" : 4992, "type" : "VEC3", "max" : [1, 0.5541013479232788, 1], "min" : [-1, -0.9846097230911255, -1], "name" : "POSITION"}, {"bufferView" : 9, "byteOffset" : 12, "componentType" : 5126, "count" : 4992, "type" : "VEC3", "max" : [0.9999846816062927, 1.0000044107437134, 0.9999846816062927], "min" : [-0.9999846816062927, -1.0000044107437134, -0.999984622001648], "name" : "NORMAL"}, {"bufferView" : 9, "byteOffset" : 24, "componentType" : 5126, "count" : 4992, "type" : "VEC2", "max" : [1, 1.9900000095367432], "min" : [5.7746656239032745E-06, 1], "name" : "TEXCOORD_0"}, {"bufferView" : 0, "byteOffset" : 32244, "componentType" : 5123, "count" : 2160, "type" : "SCALAR", "max" : [1801], "min" : [0]}, {"bufferView" : 10, "byteOffset" : 0, "componentType" : 5126, "count" : 1802, "type" : "VEC3", "max" : [0.7261181473731995, 0.013388752937316895, 0.6732775568962097], "min" : [-0.7471809387207031, -1.2783559560775757, -0.7630828619003296], "name" : "POSITION"}, {"bufferView" : 10, "byteOffset" : 12, "componentType" : 5126, "count" : 1802, "type" : "VEC3", "max" : [0.9779530167579651, 1.0000044107437134, 1.0000044107437134], "min" : [-0.9776337146759033, -1.0000044107437134, -0.9999290108680725], "name" : "NORMAL"}, {"bufferView" : 10, "byteOffset" : 24, "componentType" : 5126, "count" : 1802, "type" : "VEC2", "max" : [0, 2], "min" : [0, 2], "name" : "TEXCOORD_0"}, {"bufferView" : 0, "byteOffset" : 36564, "componentType" : 5123, "count" : 5988, "type" : "SCALAR", "max" : [4991], "min" : [0]}, {"bufferView" : 11, "byteOffset" : 0, "componentType" : 5126, "count" : 4992, "type" : "VEC3", "max" : [1, 0.5541013479232788, 1], "min" : [-1, -0.9846097230911255, -1], "name" : "POSITION"}, {"bufferView" : 11, "byteOffset" : 12, "componentType" : 5126, "count" : 4992, "type" : "VEC3", "max" : [0.9999846816062927, 1.0000044107437134, 0.9999846816062927], "min" : [-0.9999846816062927, -1.0000044107437134, -0.999984622001648], "name" : "NORMAL"}, {"bufferView" : 11, "byteOffset" : 24, "componentType" : 5126, "count" : 4992, "type" : "VEC2", "max" : [1, 1.9900000095367432], "min" : [5.7746656239032745E-06, 1], "name" : "TEXCOORD_0"}, {"bufferView" : 0, "byteOffset" : 48540, "componentType" : 5123, "count" : 2160, "type" : "SCALAR", "max" : [1801], "min" : [0]}, {"bufferView" : 12, "byteOffset" : 0, "componentType" : 5126, "count" : 1802, "type" : "VEC3", "max" : [0.7261181473731995, 0.013388752937316895, 0.6732775568962097], "min" : [-0.7471809387207031, -1.2783559560775757, -0.7630828619003296], "name" : "POSITION"}, {"bufferView" : 12, "byteOffset" : 12, "componentType" : 5126, "count" : 1802, "type" : "VEC3", "max" : [0.9779530167579651, 1.0000044107437134, 1.0000044107437134], "min" : [-0.9776337146759033, -1.0000044107437134, -0.9999290108680725], "name" : "NORMAL"}, {"bufferView" : 12, "byteOffset" : 24, "componentType" : 5126, "count" : 1802, "type" : "VEC2", "max" : [0, 2], "min" : [0, 2], "name" : "TEXCOORD_0"}, {"bufferView" : 0, "byteOffset" : 52860, "componentType" : 5123, "count" : 5988, "type" : "SCALAR", "max" : [4991], "min" : [0]}, {"bufferView" : 13, "byteOffset" : 0, "componentType" : 5126, "count" : 4992, "type" : "VEC3", "max" : [1, 0.5541013479232788, 1], "min" : [-1, -0.9846097230911255, -1], "name" : "POSITION"}, {"bufferView" : 13, "byteOffset" : 12, "componentType" : 5126, "count" : 4992, "type" : "VEC3", "max" : [0.9999846816062927, 1.0000044107437134, 0.9999846816062927], "min" : [-0.9999846816062927, -1.0000044107437134, -0.999984622001648], "name" : "NORMAL"}, {"bufferView" : 13, "byteOffset" : 24, "componentType" : 5126, "count" : 4992, "type" : "VEC2", "max" : [1, 1.9900000095367432], "min" : [5.7746656239032745E-06, 1], "name" : "TEXCOORD_0"}, {"bufferView" : 0, "byteOffset" : 64836, "componentType" : 5123, "count" : 2160, "type" : "SCALAR", "max" : [1801], "min" : [0]}, {"bufferView" : 14, "byteOffset" : 0, "componentType" : 5126, "count" : 1802, "type" : "VEC3", "max" : [0.7261181473731995, 0.013388752937316895, 0.6732775568962097], "min" : [-0.7471809387207031, -1.2783559560775757, -0.7630828619003296], "name" : "POSITION"}, {"bufferView" : 14, "byteOffset" : 12, "componentType" : 5126, "count" : 1802, "type" : "VEC3", "max" : [0.9779530167579651, 1.0000044107437134, 1.0000044107437134], "min" : [-0.9776337146759033, -1.0000044107437134, -0.9999290108680725], "name" : "NORMAL"}, {"bufferView" : 14, "byteOffset" : 24, "componentType" : 5126, "count" : 1802, "type" : "VEC2", "max" : [0, 2], "min" : [0, 2], "name" : "TEXCOORD_0"}], "asset" : {"generator" : "Aspose.3D 24.1.0", "version" : "2.0"}, "buffers" : [{"uri" : "data:application/octet-stream;base64,", "byteLength" : 1175712}], "bufferViews" : [{"buffer" : 0, "byteOffset" : 0, "byteLength" : 69156, "target" : 34963}, {"buffer" : 0, "byteOffset" : 69160, "byteLength" : 32256, "byteStride" : 32, "target" : 34962}, {"buffer" : 0, "byteOffset" : 101420, "byteLength" : 2496, "byteStride" : 32, "target" : 34962}, {"buffer" : 0, "byteOffset" : 103920, "byteLength" : 768, "byteStride" : 32, "target" : 34962}, {"buffer" : 0, "byteOffset" : 104692, "byteLength" : 768, "byteStride" : 32, "target" : 34962}, {"buffer" : 0, "byteOffset" : 105464, "byteLength" : 23232, "byteStride" : 32, "target" : 34962}, {"buffer" : 0, "byteOffset" : 128700, "byteLength" : 4032, "byteStride" : 32, "target" : 34962}, {"buffer" : 0, "byteOffset" : 132736, "byteLength" : 191616, "byteStride" : 32, "target" : 34962}, {"buffer" : 0, "byteOffset" : 324356, "byteLength" : 69120, "byteStride" : 32, "target" : 34962}, {"buffer" : 0, "byteOffset" : 393480, "byteLength" : 191616, "byteStride" : 32, "target" : 34962}, {"buffer" : 0, "byteOffset" : 585100, "byteLength" : 69120, "byteStride" : 32, "target" : 34962}, {"buffer" : 0, "byteOffset" : 654224, "byteLength" : 191616, "byteStride" : 32, "target" : 34962}, {"buffer" : 0, "byteOffset" : 845844, "byteLength" : 69120, "byteStride" : 32, "target" : 34962}, {"buffer" : 0, "byteOffset" : 914968, "byteLength" : 191616, "byteStride" : 32, "target" : 34962}, {"buffer" : 0, "byteOffset" : 1106588, "byteLength" : 69120, "byteStride" : 32, "target" : 34962}], "materials" : [{"name" : "Material.001", "pbrMetallicRoughness" : {"baseColorFactor" : [1, 1, 1, 1], "metallicFactor" : 1, "roughnessFactor" : 0.3301146924495697}, "emissiveFactor" : [0, 0, 0], "alphaMode" : "OPAQUE", "doubleSided" : true}, {"name" : "front glas", "extensions" : {"KHR_materials_transmission" : {"transmissionFactor" : 1}}, "pbrMetallicRoughness" : {"baseColorFactor" : [0, 0, 0, 1], "metallicFactor" : 0, "roughnessFactor" : 0.0896075963973999}, "emissiveFactor" : [0, 0, 0], "alphaMode" : "OPAQUE", "doubleSided" : true}, {"name" : "headlight", "pbrMetallicRoughness" : {"baseColorFactor" : [1, 1, 1, 1], "metallicFactor" : 1, "roughnessFactor" : 1}, "emissiveFactor" : [1, 1, 1], "alphaMode" : "OPAQUE", "doubleSided" : true}, {"name" : "Material.002", "pbrMetallicRoughness" : {"baseColorFactor" : [1, 1, 1, 1], "metallicFactor" : 1, "roughnessFactor" : 1}, "emissiveFactor" : [1, 0, 0.002751014835666865], "alphaMode" : "OPAQUE", "doubleSided" : true}, {"name" : "Material", "pbrMetallicRoughness" : {"baseColorFactor" : [0.0005152723751962185, 0.0005152723751962185, 0.0005152723751962185, 1], "metallicFactor" : 0, "roughnessFactor" : 0.8461538553237915}, "emissiveFactor" : [0, 0, 0], "alphaMode" : "OPAQUE", "doubleSided" : true}, {"name" : "Material.003", "pbrMetallicRoughness" : {"baseColorFactor" : [0, 0, 0, 1], "metallicFactor" : 0, "roughnessFactor" : 0.06962025910615921}, "emissiveFactor" : [0, 0, 0], "alphaMode" : "OPAQUE", "doubleSided" : true}, {"name" : "Material.009", "pbrMetallicRoughness" : {"baseColorFactor" : [1, 1, 1, 1], "metallicFactor" : 0, "roughnessFactor" : 0.5}, "emissiveFactor" : [0, 0, 0], "alphaMode" : "OPAQUE", "doubleSided" : true}, {"name" : "Material.008", "pbrMetallicRoughness" : {"baseColorFactor" : [1, 1, 1, 1], "metallicFactor" : 0, "roughnessFactor" : 0.5}, "emissiveFactor" : [0, 0, 0], "alphaMode" : "OPAQUE", "doubleSided" : true}, {"name" : "Material.009", "pbrMetallicRoughness" : {"baseColorFactor" : [1, 1, 1, 1], "metallicFactor" : 0, "roughnessFactor" : 0.5}, "emissiveFactor" : [0, 0, 0], "alphaMode" : "OPAQUE", "doubleSided" : true}, {"name" : "Material.008", "pbrMetallicRoughness" : {"baseColorFactor" : [1, 1, 1, 1], "metallicFactor" : 0, "roughnessFactor" : 0.5}, "emissiveFactor" : [0, 0, 0], "alphaMode" : "OPAQUE", "doubleSided" : true}, {"name" : "Material.009", "pbrMetallicRoughness" : {"baseColorFactor" : [1, 1, 1, 1], "metallicFactor" : 0, "roughnessFactor" : 0.5}, "emissiveFactor" : [0, 0, 0], "alphaMode" : "OPAQUE", "doubleSided" : true}, {"name" : "Material.008", "pbrMetallicRoughness" : {"baseColorFactor" : [1, 1, 1, 1], "metallicFactor" : 0, "roughnessFactor" : 0.5}, "emissiveFactor" : [0, 0, 0], "alphaMode" : "OPAQUE", "doubleSided" : true}, {"name" : "Material.009", "pbrMetallicRoughness" : {"baseColorFactor" : [1, 1, 1, 1], "metallicFactor" : 0, "roughnessFactor" : 0.5}, "emissiveFactor" : [0, 0, 0], "alphaMode" : "OPAQUE", "doubleSided" : true}, {"name" : "Material.008", "pbrMetallicRoughness" : {"baseColorFactor" : [1, 1, 1, 1], "metallicFactor" : 0, "roughnessFactor" : 0.5}, "emissiveFactor" : [0, 0, 0], "alphaMode" : "OPAQUE", "doubleSided" : true}], "meshes" : [{"primitives" : [{"attributes" : {"POSITION" : 1, "NORMAL" : 2, "TEXCOORD_0" : 3}, "indices" : 0, "material" : 0, "mode" : 4}, {"attributes" : {"POSITION" : 5, "NORMAL" : 6, "TEXCOORD_0" : 7}, "indices" : 4, "material" : 1, "mode" : 4}, {"attributes" : {"POSITION" : 9, "NORMAL" : 10, "TEXCOORD_0" : 11}, "indices" : 8, "material" : 2, "mode" : 4}, {"attributes" : {"POSITION" : 13, "NORMAL" : 14, "TEXCOORD_0" : 15}, "indices" : 12, "material" : 3, "mode" : 4}, {"attributes" : {"POSITION" : 17, "NORMAL" : 18, "TEXCOORD_0" : 19}, "indices" : 16, "material" : 4, "mode" : 4}, {"attributes" : {"POSITION" : 21, "NORMAL" : 22, "TEXCOORD_0" : 23}, "indices" : 20, "material" : 5, "mode" : 4}]}, {"primitives" : [{"attributes" : {"POSITION" : 25, "NORMAL" : 26, "TEXCOORD_0" : 27}, "indices" : 24, "material" : 6, "mode" : 4}, {"attributes" : {"POSITION" : 29, "NORMAL" : 30, "TEXCOORD_0" : 31}, "indices" : 28, "material" : 7, "mode" : 4}]}, {"primitives" : [{"attributes" : {"POSITION" : 33, "NORMAL" : 34, "TEXCOORD_0" : 35}, "indices" : 32, "material" : 8, "mode" : 4}, {"attributes" : {"POSITION" : 37, "NORMAL" : 38, "TEXCOORD_0" : 39}, "indices" : 36, "material" : 9, "mode" : 4}]}, {"primitives" : [{"attributes" : {"POSITION" : 41, "NORMAL" : 42, "TEXCOORD_0" : 43}, "indices" : 40, "material" : 10, "mode" : 4}, {"attributes" : {"POSITION" : 45, "NORMAL" : 46, "TEXCOORD_0" : 47}, "indices" : 44, "material" : 11, "mode" : 4}]}, {"primitives" : [{"attributes" : {"POSITION" : 49, "NORMAL" : 50, "TEXCOORD_0" : 51}, "indices" : 48, "material" : 12, "mode" : 4}, {"attributes" : {"POSITION" : 53, "NORMAL" : 54, "TEXCOORD_0" : 55}, "indices" : 52, "material" : 13, "mode" : 4}]}], "nodes" : [{"matrix" : [0.5579309463500977, 0, 0, 0, 0, 0.45399367809295654, 0, 0, 0, 0, 0.45399367809295654, 0, 0, 0.06444218754768372, 0, 1], "mesh" : 0, "name" : "Cube"}, {"matrix" : [5.370467438179229E-08, -0.2647951452695607, 0, 0, 0.1354393316640043, 2.7469254385681008E-08, 0, 0, 0, 0, 0.2647951543331146, 0, -0.4437653720378876, -0.32034406065940857, 0.9097514152526855, 1], "mesh" : 1, "name" : "Cylinder"}, {"matrix" : [5.370467438179229E-08, -0.2647951452695607, 0, 0, 0.1354393316640043, 2.7469254385681008E-08, 0, 0, 0, 0, 0.2647951543331146, 0, -0.4437653720378876, -0.32034406065940857, -1.2263031005859375, 1], "mesh" : 2, "name" : "Cylinder.001"}, {"matrix" : [5.370467438179229E-08, -0.2647951452695607, 1.999147828898795E-08, 0, -0.1354393316640043, -1.8197474348348268E-08, 1.0225387297612136E-08, 0, -1.999147828898795E-08, -1.999148165929952E-08, -0.26479513620601436, 0, 0.47260239720344543, -0.32034406065940857, -1.2263031005859375, 1], "mesh" : 3, "name" : "Cylinder.002"}, {"matrix" : [5.370467438179229E-08, -0.2647951452695607, 1.999147828898795E-08, 0, -0.1354393316640043, -1.8197474348348268E-08, 1.0225387297612136E-08, 0, -1.999147828898795E-08, -1.999148165929952E-08, -0.26479513620601436, 0, 0.47260215878486633, -0.32034406065940857, 0.9097514152526855, 1], "mesh" : 4, "name" : "Cylinder.003"}], "scene" : 0, "scenes" : [{"nodes" : [0, 1, 2, 3, 4]}]}